<svg width="25" height="16" viewBox="0 0 25 16" fill="none" xmlns="http://www.w3.org/2000/svg">
<path fill-rule="evenodd" clip-rule="evenodd" d="M23.9214 7.2926L17.5574 0.928635C17.1669 0.538111 16.5337 0.538111 16.1432 0.928635C15.7527 1.31916 15.7527 1.95232 16.1432 2.34285L20.8001 6.9997H16.8571H8.92857L1 6.9997C0.447716 6.9997 0 7.44742 0 7.9997C0 8.55199 0.447715 8.9997 1 8.9997L8.92857 8.9997H16.8571H20.8001L16.1432 13.6566C15.7527 14.0471 15.7527 14.6802 16.1432 15.0708C16.5337 15.4613 17.1669 15.4613 17.5574 15.0708L23.9214 8.70681C24.3119 8.31629 24.3119 7.68312 23.9214 7.2926Z" fill="black"/>
<path fill-rule="evenodd" clip-rule="evenodd" d="M23.9214 7.2926L17.5574 0.928635C17.1669 0.538111 16.5337 0.538111 16.1432 0.928635C15.7527 1.31916 15.7527 1.95232 16.1432 2.34285L20.8001 6.9997H16.8571H8.92857L1 6.9997C0.447716 6.9997 0 7.44742 0 7.9997C0 8.55199 0.447715 8.9997 1 8.9997L8.92857 8.9997H16.8571H20.8001L16.1432 13.6566C15.7527 14.0471 15.7527 14.6802 16.1432 15.0708C16.5337 15.4613 17.1669 15.4613 17.5574 15.0708L23.9214 8.70681C24.3119 8.31629 24.3119 7.68312 23.9214 7.2926Z" fill="#735CF2"/>
</svg>
