<svg width="30" height="30" viewBox="0 0 30 30" fill="none" xmlns="http://www.w3.org/2000/svg">
<path d="M22.2135 0H7.78548C3.27387 0 0 3.27484 0 7.78645V22.2135C0 26.7252 3.27387 30 7.78548 30H22.2135C26.7252 30 30 26.7252 30 22.2135V7.78645C30 3.27484 26.7252 0 22.2135 0ZM28.0645 22.2135C28.0645 25.6587 25.6587 28.0645 22.2135 28.0645H7.78548C4.34129 28.0645 1.93548 25.6587 1.93548 22.2135V7.78645C1.93548 4.34129 4.34129 1.93548 7.78548 1.93548H22.2135C25.6587 1.93548 28.0645 4.34129 28.0645 7.78645V22.2135Z" fill="#929AB1"/>
<path d="M14.192 15.9628C13.8049 15.4538 13.2504 15.0938 12.5314 14.8828C13.0898 14.606 13.5059 14.2431 13.7817 13.7941C14.0575 13.3451 14.1959 12.866 14.1959 12.357C14.1959 11.8102 14.0401 11.2867 13.7294 10.7854C13.4188 10.2841 12.9872 9.91344 12.4385 9.67247C11.8898 9.43151 11.1582 9.30957 10.2485 9.30957H5.78235V21.2167H10.322C11.0807 21.2167 11.7204 21.1509 12.243 21.0183C12.7656 20.8847 13.2001 20.6892 13.5465 20.4289C13.893 20.1696 14.1843 19.7999 14.4194 19.3209C14.6546 18.8409 14.7727 18.3231 14.7727 17.7657C14.7727 17.0718 14.5791 16.4718 14.192 15.9628ZM7.35783 14.3128V10.7157H9.73751C10.593 10.7157 11.1969 10.7709 11.5491 10.8812C11.9014 10.9925 12.1714 11.1976 12.3611 11.4986C12.5507 11.8005 12.6456 12.148 12.6456 12.5428C12.6456 12.9599 12.544 13.3063 12.3407 13.5822C12.1375 13.858 11.8356 14.0563 11.4349 14.1754C11.132 14.2673 10.6307 14.3138 9.93299 14.3138H7.35783V14.3128ZM12.9059 18.7683C12.7482 19.0586 12.5478 19.2783 12.3049 19.4312C12.0611 19.5822 11.7582 19.6905 11.3953 19.7554C11.1901 19.7931 10.832 19.8134 10.323 19.8134H7.35783V19.8125V15.7189H10.1111C10.8698 15.7189 11.4494 15.7847 11.853 15.9183C12.2565 16.0499 12.572 16.2812 12.7994 16.6083C13.0269 16.9354 13.1411 17.3215 13.1411 17.7657C13.1411 18.1451 13.0627 18.478 12.9059 18.7683Z" fill="#929AB1"/>
<path d="M24.219 16.8909C24.219 15.4664 23.8532 14.3622 23.1226 13.5764C22.391 12.7887 21.4494 12.3967 20.2958 12.3967C19.1045 12.3967 18.1368 12.7974 17.3887 13.5987C16.6416 14.4009 16.2681 15.5264 16.2681 16.978C16.2681 18.3803 16.6377 19.47 17.3761 20.248C18.1165 21.0241 19.1161 21.4122 20.379 21.4122C21.3797 21.4122 22.2023 21.1683 22.8477 20.6816C23.4923 20.1938 23.9326 19.5087 24.1706 18.6261L22.66 18.4412C22.4384 19.0577 22.1384 19.5077 21.7571 19.7893C21.3787 20.0709 20.9219 20.2112 20.3858 20.2112C19.6658 20.2112 19.0648 19.9596 18.5819 19.4564C18.101 18.9522 17.8339 18.2264 17.7787 17.28H24.2113C24.2171 17.1067 24.219 16.9771 24.219 16.8909ZM17.86 16.0761V16.0751C17.9074 15.3222 18.1619 14.7222 18.6177 14.2722C19.0765 13.8232 19.6416 13.5977 20.3113 13.5977C21.0536 13.5977 21.6574 13.8803 22.1229 14.4435C22.4248 14.8064 22.6097 15.3503 22.6755 16.0761H17.86Z" fill="#929AB1"/>
<path d="M22.6864 10.3745H17.8013L17.7887 11.5764H22.6951L22.6864 10.3745Z" fill="#929AB1"/>
</svg>
