<svg width="60" height="60" viewBox="0 0 60 60" fill="none" xmlns="http://www.w3.org/2000/svg">
<path d="M0 0H60V60H30C13.4315 60 0 46.5685 0 30V0Z" fill="#735CF2"/>
<path d="M25.2929 30.2929C24.9024 30.6834 24.9024 31.3166 25.2929 31.7071L31.6569 38.0711C32.0474 38.4616 32.6805 38.4616 33.0711 38.0711C33.4616 37.6805 33.4616 37.0474 33.0711 36.6569L27.4142 31L33.0711 25.3431C33.4616 24.9526 33.4616 24.3195 33.0711 23.9289C32.6805 23.5384 32.0474 23.5384 31.6569 23.9289L25.2929 30.2929ZM27 30H26V32H27V30Z" fill="#E0E4FD"/>
<path d="M25.2929 30.2929C24.9024 30.6834 24.9024 31.3166 25.2929 31.7071L31.6569 38.0711C32.0474 38.4616 32.6805 38.4616 33.0711 38.0711C33.4616 37.6805 33.4616 37.0474 33.0711 36.6569L27.4142 31L33.0711 25.3431C33.4616 24.9526 33.4616 24.3195 33.0711 23.9289C32.6805 23.5384 32.0474 23.5384 31.6569 23.9289L25.2929 30.2929ZM27 30H26V32H27V30Z" fill="#C8CCD8"/>
</svg>
