<svg width="60" height="60" viewBox="0 0 60 60" fill="none" xmlns="http://www.w3.org/2000/svg">
<path d="M60 60L0 60L5.24537e-06 -5.24537e-06L30 -2.62268e-06C46.5685 -1.17422e-06 60 13.4315 60 30L60 60Z" fill="#E9ECFF"/>
<path d="M34.7071 30.2929C35.0976 30.6834 35.0976 31.3166 34.7071 31.7071L28.3431 38.0711C27.9526 38.4616 27.3195 38.4616 26.9289 38.0711C26.5384 37.6805 26.5384 37.0474 26.9289 36.6569L32.5858 31L26.9289 25.3431C26.5384 24.9526 26.5384 24.3195 26.9289 23.9289C27.3195 23.5384 27.9526 23.5384 28.3431 23.9289L34.7071 30.2929ZM33 30H34V32H33V30Z" fill="#E0E4FD"/>
<path d="M34.7071 30.2929C35.0976 30.6834 35.0976 31.3166 34.7071 31.7071L28.3431 38.0711C27.9526 38.4616 27.3195 38.4616 26.9289 38.0711C26.5384 37.6805 26.5384 37.0474 26.9289 36.6569L32.5858 31L26.9289 25.3431C26.5384 24.9526 26.5384 24.3195 26.9289 23.9289C27.3195 23.5384 27.9526 23.5384 28.3431 23.9289L34.7071 30.2929ZM33 30H34V32H33V30Z" fill="#735CF2"/>
</svg>
