<svg width="60" height="44" viewBox="0 0 60 44" fill="none" xmlns="http://www.w3.org/2000/svg">
<path d="M60 0L60 44L1.8914e-06 44L2.50336e-06 30C3.22759e-06 13.4315 13.4315 -2.03558e-06 30 -1.31134e-06L60 0Z" fill="#090909"/>
<path d="M37.9628 24.9556C38.1442 24.5236 37.6259 24.1556 37.1913 24.3476C36.3224 24.729 35.3836 24.9251 34.4348 24.9236C30.7148 24.9236 27.6996 21.9689 27.6996 18.3236C27.6982 17.0928 28.0479 15.8871 28.7076 14.848C28.9601 14.4498 28.657 13.8987 28.1947 14.0161C24.6311 14.9254 22 18.1005 22 21.8774C22 26.3636 25.7111 30 30.2899 30C33.7566 30 36.7255 27.9156 37.9628 24.9556Z" stroke="white" stroke-linecap="round" stroke-linejoin="round"/>
</svg>
