<svg width="34" height="258" viewBox="0 0 34 258" fill="none" xmlns="http://www.w3.org/2000/svg">
<path d="M25.1111 34.75C29 18.484 34 0 34 0L34 258C34 258 29 238.037 25.1111 223.989C19.3921 203.33 2.36041e-06 161.921 0 129C-2.36041e-06 96.0789 20.3103 54.8302 25.1111 34.75Z" fill="#090909"/>
<path d="M23.9628 131.956C24.1442 131.524 23.6259 131.156 23.1913 131.348C22.3224 131.729 21.3836 131.925 20.4348 131.924C16.7148 131.924 13.6996 128.969 13.6996 125.324C13.6982 124.093 14.0479 122.887 14.7076 121.848C14.9601 121.45 14.657 120.899 14.1947 121.016C10.6311 121.925 8 125.1 8 128.877C8 133.364 11.7111 137 16.2899 137C19.7566 137 22.7255 134.916 23.9628 131.956Z" stroke="white" stroke-linecap="round" stroke-linejoin="round"/>
</svg>
