<svg width="31" height="30" viewBox="0 0 31 30" fill="none" xmlns="http://www.w3.org/2000/svg">
<path d="M22.7084 0H8.94983C4.47198 0 0.829102 3.64288 0.829102 8.12073V21.8795C0.829102 26.3571 4.47198 30 8.94983 30H22.7086C27.1862 30 30.8291 26.3571 30.8291 21.8795V8.12073C30.8291 3.64288 27.1862 0 22.7084 0V0ZM29.0704 21.8795C29.0704 25.3873 26.2164 28.2413 22.7084 28.2413H8.94983C5.44176 28.2413 2.58783 25.3873 2.58783 21.8795V8.12073C2.58783 4.61266 5.44176 1.75873 8.94983 1.75873H22.7086C26.2164 1.75873 29.0704 4.61266 29.0704 8.12073V21.8795Z" fill="#929AB1"/>
<path d="M15.8294 6.79736C11.3062 6.79736 7.62646 10.4771 7.62646 15.0003C7.62646 19.5234 11.3062 23.2032 15.8294 23.2032C20.3525 23.2032 24.0323 19.5234 24.0323 15.0003C24.0323 10.4771 20.3525 6.79736 15.8294 6.79736ZM15.8294 21.4444C12.2762 21.4444 9.38519 18.5536 9.38519 15.0003C9.38519 11.4471 12.2762 8.55609 15.8294 8.55609C19.3828 8.55609 22.2735 11.4471 22.2735 15.0003C22.2735 18.5536 19.3828 21.4444 15.8294 21.4444Z" fill="#929AB1"/>
<path d="M24.2282 3.88428C22.8915 3.88428 21.8043 4.97169 21.8043 6.30814C21.8043 7.64481 22.8915 8.73222 24.2282 8.73222C25.5648 8.73222 26.6523 7.64481 26.6523 6.30814C26.6523 4.97147 25.5648 3.88428 24.2282 3.88428ZM24.2282 6.97327C23.8615 6.97327 23.563 6.6748 23.563 6.30814C23.563 5.94124 23.8615 5.64301 24.2282 5.64301C24.5951 5.64301 24.8935 5.94124 24.8935 6.30814C24.8935 6.6748 24.5951 6.97327 24.2282 6.97327Z" fill="#929AB1"/>
</svg>
