<svg width="34" height="258" viewBox="0 0 34 258" fill="none" xmlns="http://www.w3.org/2000/svg">
<path d="M25.1111 34.75C29 18.484 34 0 34 0L34 258C34 258 29 238.037 25.1111 223.989C19.3921 203.33 2.36041e-06 161.921 0 129C-2.36041e-06 96.0789 20.3103 54.8302 25.1111 34.75Z" fill="#FCFBFD"/>
<path d="M16 121.8V121V121.8ZM16 137V136.2V137ZM23.2 129H24H23.2ZM8 129H8.8H8ZM21.6 123.4L22.4 122.6L21.6 123.4ZM9.6 135.4L10.4 134.6L9.6 135.4ZM9.6 122.6L10.4 123.4L9.6 122.6ZM21.6 134.6L22.4 135.4L21.6 134.6ZM20.8 129C20.8 130.273 20.2943 131.494 19.3941 132.394C18.4939 133.294 17.273 133.8 16 133.8C14.727 133.8 13.5061 133.294 12.6059 132.394C11.7057 131.494 11.2 130.273 11.2 129C11.2 127.727 11.7057 126.506 12.6059 125.606C13.5061 124.706 14.727 124.2 16 124.2C17.273 124.2 18.4939 124.706 19.3941 125.606C20.2943 126.506 20.8 127.727 20.8 129V129Z" stroke="#735CF2" stroke-linecap="round" stroke-linejoin="round"/>
</svg>
