<svg width="14" height="13" viewBox="0 0 14 13" fill="none" xmlns="http://www.w3.org/2000/svg">
<path d="M7.04332 0.822024L8.41069 3.29128C8.61748 3.66472 8.97359 3.93236 9.38981 4.02716L12.1212 4.64928C12.4871 4.73263 12.6342 5.17446 12.3912 5.46051L10.4772 7.71366C10.2146 8.02271 10.0884 8.42489 10.1272 8.82853L10.4117 11.7832C10.4487 12.1677 10.0542 12.4472 9.7037 12.2847L7.2367 11.1413C6.83662 10.9558 6.37521 10.9558 5.97513 11.1413L3.50812 12.2847C3.15762 12.4472 2.76315 12.1677 2.80016 11.7832L3.08458 8.82853C3.12344 8.42489 2.99721 8.02271 2.73467 7.71366L0.820608 5.46051C0.577609 5.17446 0.724674 4.73263 1.09063 4.64928L3.82202 4.02716C4.23823 3.93236 4.59434 3.66472 4.80114 3.29128L6.1685 0.822024C6.35883 0.478317 6.85299 0.478317 7.04332 0.822024Z" stroke="#090909"/>
</svg>
