<svg width="18" height="18" viewBox="0 0 18 18" fill="none" xmlns="http://www.w3.org/2000/svg">
<path d="M9 1.8V1V1.8ZM9 17V16.2V17ZM16.2 9H17H16.2ZM1 9H1.8H1ZM14.6 3.4L15.4 2.6L14.6 3.4ZM2.6 15.4L3.4 14.6L2.6 15.4ZM2.6 2.6L3.4 3.4L2.6 2.6ZM14.6 14.6L15.4 15.4L14.6 14.6ZM13.8 9C13.8 10.273 13.2943 11.4939 12.3941 12.3941C11.4939 13.2943 10.273 13.8 9 13.8C7.72696 13.8 6.50606 13.2943 5.60589 12.3941C4.70571 11.4939 4.2 10.273 4.2 9C4.2 7.72696 4.70571 6.50606 5.60589 5.60589C6.50606 4.70571 7.72696 4.2 9 4.2C10.273 4.2 11.4939 4.70571 12.3941 5.60589C13.2943 6.50606 13.8 7.72696 13.8 9V9Z" stroke="#735CF2" stroke-linecap="round" stroke-linejoin="round"/>
</svg>
